HIERARCHY
ROOT hip
{
	OFFSET 0.000000 0.000000 0.000000 
	CHANNELS 6 Xposition Yposition Zposition Xrotation Zrotation Yrotation
	JOINT abdomen
	{
		OFFSET 0.000000 3.402643 0.000000 
		CHANNELS 3 Xrotation Zrotation Yrotation
		JOINT chest
		{
			OFFSET 0.000000 8.438565 -0.680529 
			CHANNELS 3 Xrotation Zrotation Yrotation
			JOINT neck
			{
				OFFSET 0.000000 10.207942 -0.272212 
				CHANNELS 3 Xrotation Zrotation Yrotation
				JOINT head
				{
					OFFSET 0.000000 3.130431 0.000000 
					CHANNELS 3 Xrotation Zrotation Yrotation
					End Site
					{
						OFFSET 0.000000 3.130435 0.000000 
					}
				}
			}
			JOINT lCollar
			{
				OFFSET 3.470700 6.669187 -0.816635 
				CHANNELS 3 Yrotation Zrotation Xrotation
				JOINT lShldr
				{
					OFFSET 3.198488 0.000000 0.000000 
					CHANNELS 3 Zrotation Yrotation Xrotation
					JOINT lForeArm
					{
						OFFSET 10.139888 0.000000 0.000000 
						CHANNELS 3 Yrotation Zrotation Xrotation
						JOINT lHand
						{
							OFFSET 8.370511 0.000000 0.000000 
							CHANNELS 3 Zrotation Yrotation Xrotation
							End Site
							{
								OFFSET 4.083176 0.000000 0.000000 
							}
						}
					}
				}
			}
			JOINT rCollar
			{
				OFFSET -3.470700 6.669187 -0.816635 
				CHANNELS 3 Yrotation Zrotation Xrotation
				JOINT rShldr
				{
					OFFSET -3.198488 0.000000 0.000000 
					CHANNELS 3 Zrotation Yrotation Xrotation
					JOINT rForeArm
					{
						OFFSET -10.139888 0.000000 0.000000 
						CHANNELS 3 Yrotation Zrotation Xrotation
						JOINT rHand
						{
							OFFSET -8.370511 0.000000 0.000000 
							CHANNELS 3 Zrotation Yrotation Xrotation
							End Site
							{
								OFFSET -4.083176 0.000000 0.000000 
							}
						}
					}
				}
			}
		}
	}
	JOINT lThigh
	{
		OFFSET 5.308129 -1.633274 1.361059 
		CHANNELS 3 Xrotation Zrotation Yrotation
		JOINT lShin
		{
			OFFSET -2.041588 -20.007561 0.000000 
			CHANNELS 3 Xrotation Zrotation Yrotation
			JOINT lFoot
			{
				OFFSET 0.000000 -19.190928 -1.224953 
				CHANNELS 3 Xrotation Yrotation Zrotation
				End Site
				{
					OFFSET 0.000000 -2.449906 4.627600 
				}
			}
		}
	}
	JOINT rThigh
	{
		OFFSET -5.308129 -1.633274 1.361059 
		CHANNELS 3 Xrotation Zrotation Yrotation
		JOINT rShin
		{
			OFFSET 2.041588 -20.007561 0.000000 
			CHANNELS 3 Xrotation Zrotation Yrotation
			JOINT rFoot
			{
				OFFSET 0.000000 -19.190928 -1.224953 
				CHANNELS 3 Xrotation Yrotation Zrotation
				End Site
				{
					OFFSET 0.000000 -2.449906 4.627600 
				}
			}
		}
	}
}
MOTION
Frames: 13
Frame Time: 0.011111
-0.429141 85.843918 -30.264225 -2.357826 0.168348 -89.412125 27.183432 -2.997540 3.809538 -22.431152 -1.876035 1.256611 2.171945 12.948035 -8.204829 -30.049669 -37.775097 -7.659314 2.424333 -4.683778 1.783845 -68.772446 -36.573254 -14.581791 -36.907806 3.565122 3.332292 8.524705 12.647240 -65.950569 -2.738486 -1.140572 2.095526 62.804588 28.463760 29.609093 59.167503 -9.204670 12.035589 -8.534408 -12.637552 22.269392 -7.816628 5.363113 18.158878 33.632504 -5.118691 -5.314717 -28.482407 13.759899 4.415433 -1.325979 -1.911483 7.247374 26.761095 5.482692 4.415724 -39.554306 -13.145122 -8.887197 
-0.434253 85.836998 -30.294601 -1.905490 0.387033 -89.041512 26.844370 -2.830262 4.510150 -22.382139 -2.258785 1.431933 4.272790 14.222587 -8.943443 -36.106506 -40.182068 -7.286912 2.424333 -4.683778 1.783845 -68.413071 -36.569115 -15.455516 -36.797806 3.526753 3.306902 8.524705 12.647240 -67.483780 -2.738486 -1.140572 2.095526 63.104378 28.488733 29.170628 59.103882 -9.199765 12.012027 -8.534408 -12.637552 21.556501 -7.983412 5.735147 18.083893 33.284527 -5.143714 -5.252645 -28.853075 13.829715 4.582003 -1.497350 -1.381537 7.045199 26.881662 5.477876 4.425178 -39.632320 -13.290287 -9.014820 
-0.453801 85.818970 -30.314451 -1.949495 0.443557 -88.610870 26.640751 -3.078469 4.752323 -22.382006 -2.263298 1.529971 5.313750 14.598954 -9.127468 -39.483311 -40.925545 -6.677056 2.424333 -4.683778 1.783845 -68.339012 -36.394447 -16.253988 -36.817928 3.532653 3.304774 8.524705 12.647240 -68.694717 -2.738486 -1.140572 2.095526 63.054142 28.469929 29.217667 59.145847 -9.201377 12.024972 -8.534408 -12.637552 21.263529 -7.798889 5.473084 18.120205 32.845757 -5.173158 -5.212042 -28.339634 14.593012 4.680268 -1.538927 -1.403134 6.894372 26.922016 5.473603 4.437445 -39.889339 -13.366480 -9.189388 
-0.495903 85.799416 -30.319258 -2.285154 0.331723 -88.056854 26.615032 -3.493259 4.653400 -22.333113 -2.166050 1.542406 6.125315 14.674306 -9.245934 -42.000557 -41.084118 -6.317039 2.424333 -4.683778 1.783845 -68.393494 -36.168953 -15.910734 -36.897442 3.558576 3.335289 8.524705 12.647240 -67.620499 -2.738486 -1.140572 2.095526 62.936626 28.588831 29.721182 59.145847 -9.201377 12.024972 -8.534408 -12.637552 21.497906 -7.261143 4.798603 17.833735 32.266865 -5.216348 -5.143352 -27.909389 15.322051 4.808907 -1.362029 -1.751328 6.516554 26.971361 5.478070 4.433090 -40.135567 -13.350401 -9.282702 
-0.528682 85.781372 -30.324677 -2.351805 0.169349 -87.459114 26.692268 -3.584400 4.623902 -22.274502 -2.206636 1.542207 6.684060 14.833870 -9.338717 -44.037823 -41.209023 -5.977719 2.424333 -4.683778 1.783845 -68.419220 -35.992733 -16.261580 -36.958061 3.592983 3.360200 8.524705 12.647240 -67.796280 -2.738486 -1.140572 2.095526 62.911819 28.862661 30.301001 59.093132 -9.197789 12.001850 -8.534408 -12.637552 21.849468 -6.792740 4.437939 17.331461 31.621122 -5.240761 -5.053647 -28.002546 15.622215 4.934140 -1.023256 -1.851655 6.011507 26.800999 5.482635 4.419209 -40.229176 -13.298019 -9.304524 
-0.556650 85.772057 -30.346327 -2.199014 0.098469 -86.905365 26.686689 -3.480197 4.608944 -22.333118 -2.088550 1.528541 7.644608 14.866924 -9.372338 -46.972664 -41.238388 -5.376335 2.424333 -4.683778 1.783845 -68.561127 -35.668194 -16.927744 -37.067860 3.631710 3.395585 8.524705 12.647240 -68.626350 -2.738486 -1.140572 2.095526 62.754536 28.991892 30.812872 59.040257 -9.194758 11.986938 -8.534408 -12.637552 22.142435 -6.542483 4.364606 16.787256 31.062017 -5.274282 -4.992449 -27.908670 16.142118 5.097406 -0.663270 -1.667950 5.757632 26.499817 5.492764 4.394320 -40.384010 -13.447006 -9.488899 
-0.594241 85.873093 -30.375195 -1.957749 0.101187 -86.365265 26.612823 -3.317698 4.619792 -22.411278 -1.940723 1.513726 8.491889 14.723331 -9.386348 -49.348614 -40.994724 -4.990426 2.424333 -4.683778 1.783845 -68.750305 -35.235458 -15.497145 -37.228245 3.697341 3.450155 8.524705 12.647240 -66.018929 -2.738486 -1.140572 2.095526 62.648201 29.178974 30.945688 58.955112 -9.185630 11.943122 -8.534408 -12.637552 21.790871 -6.738217 4.648450 13.899449 30.651197 -5.307291 -4.944970 -32.153065 12.971307 5.516191 -0.292680 -1.383039 5.727262 26.037886 5.511955 4.328196 -40.753220 -13.555276 -9.729332 
-0.624615 85.908577 -30.385118 -1.728688 0.151689 -85.773170 26.503183 -3.135837 4.704746 -22.372204 -1.961258 1.513444 9.042722 14.685953 -9.480218 -51.336479 -40.754086 -4.879540 2.424333 -4.683778 1.783845 -68.727386 -35.108841 -16.196608 -37.348511 3.742144 3.483047 8.524705 12.647240 -67.317757 -2.738486 -1.140572 2.095526 62.693615 29.471334 30.644398 58.913136 -9.183828 11.928679 -8.534408 -12.637552 20.560404 -6.874718 4.745874 12.151774 30.362534 -5.318280 -4.903044 -33.868679 11.845401 5.648346 -0.021801 -1.114245 5.652174 25.613647 5.538455 4.275834 -40.933640 -13.787179 -9.980548 
-0.650478 85.906776 -30.387526 -1.678531 0.188730 -85.119080 26.395771 -3.126545 4.701077 -22.362436 -1.971267 1.513629 9.276076 14.792830 -9.554981 -52.631603 -40.847458 -4.674078 2.424333 -4.683778 1.783845 -68.743416 -34.942543 -16.186342 -37.418610 3.767642 3.503458 8.524705 12.647240 -67.210342 -2.738486 -1.140572 2.095526 62.717262 29.666340 30.640177 58.933449 -9.182215 11.930993 -8.534408 -12.637552 19.984234 -6.913126 4.637692 11.212048 30.183105 -5.323738 -4.887893 -34.465397 11.410106 5.667922 0.219832 -1.056968 5.435701 25.212059 5.552556 4.204007 -41.028042 -14.061410 -10.169950 
-0.673635 85.900757 -30.388430 -1.676548 0.217804 -84.462540 26.287107 -3.234903 4.699903 -22.391739 -1.999748 1.516209 9.727885 14.872452 -9.558437 -54.367111 -40.973820 -4.215379 2.424333 -4.683778 1.783845 -68.678848 -34.738445 -16.017578 -37.428761 3.774689 3.510310 8.524705 12.647240 -67.083389 -2.738486 -1.140572 2.095526 62.788086 29.714165 30.886812 58.976620 -9.189656 11.963442 -8.534408 -12.637552 20.394386 -6.962224 4.511084 10.487992 30.073009 -5.337978 -4.843008 -34.983307 10.828290 5.567187 0.309391 -1.049036 4.970826 25.129877 5.561486 4.208523 -41.111961 -14.221954 -10.303590 
-0.688069 85.901665 -30.402563 -1.722026 0.236001 -84.048897 26.276028 -3.515822 4.742968 -22.430740 -1.966799 1.564735 10.377182 15.130057 -9.771122 -56.251213 -40.560394 -4.491136 2.424333 -4.683778 1.783845 -68.624062 -34.524422 -15.540261 -37.498871 3.800108 3.530801 8.524705 12.647240 -66.087288 -2.738486 -1.140572 2.095526 62.940495 29.848715 31.297388 59.029507 -9.192766 11.976769 -8.534408 -12.637552 21.185406 -6.979417 4.401506 10.037166 30.042904 -5.338046 -4.850109 -35.435650 10.218527 5.428051 0.312507 -1.073911 4.822096 25.159998 5.560993 4.211052 -41.403965 -14.175513 -10.432961 
-0.692279 85.896545 -30.430531 -1.797816 0.205666 -83.744766 26.362644 -3.879163 4.819775 -22.528324 -1.902335 1.623303 10.984271 15.172002 -9.899888 -57.928001 -40.015171 -4.733262 2.424333 -4.683778 1.783845 -68.600990 -34.388039 -15.175169 -37.599068 3.838775 3.566721 8.524705 12.647240 -64.944717 -2.738486 -1.140572 2.095526 63.153446 30.011667 31.568493 59.040257 -9.194758 11.986938 -8.534408 -12.637552 21.673687 -6.987900 4.371045 9.929395 30.084455 -5.328329 -4.841500 -35.762615 9.247209 5.013838 0.349168 -1.079414 4.932271 25.222067 5.552536 4.204879 -41.772892 -14.136106 -10.609668 
-0.694084 85.887230 -30.460304 -1.874923 0.147022 -83.409515 26.482519 -4.203156 4.825371 -22.625929 -1.809561 1.660465 11.378619 15.103825 -9.932360 -59.063049 -39.690483 -4.732130 2.424333 -4.683778 1.783845 -68.549850 -34.330235 -14.736929 -37.619385 3.852799 3.580500 8.524705 12.647240 -63.704479 -2.738486 -1.140572 2.095526 63.367809 30.242941 31.668695 58.976776 -9.189033 11.953698 -8.534408 -12.637552 21.712749 -7.029693 4.354062 9.862188 30.184666 -5.318005 -4.866966 -34.533230 10.175419 5.049873 0.426638 -1.070276 5.036059 25.200197 5.561693 4.204984 -42.084949 -14.186951 -10.818741 
